#!OML:ASF E:\CV Data\Top Level 1\Subject 1\Session 1\player.ASF
:FULLY-SPECIFIED
:DEGREES
2080
root 6.49745 17.8731 -2.52006 14.569 -28.3059 -1.52758
lowerback 6.11898 4.70098 0.152071
upperback -1.81632 6.42696 2.65002
thorax -5.60423 3.21799 1.95934
lowerneck -16.1225 -4.00835 -10.3807
upperneck 10.4937 -3.83788 5.34353
head 6.1196 -1.86738 3.00173
rclavicle 2.98177e-014 -4.77083e-015
rhumerus -24.0412 -23.6013 -75.111
rradius 15.1766
rwrist 0.437459
rhand -23.7933 -1.85652
rfingers 7.12502
rthumb 2.67694 -31.8195
lclavicle 2.98177e-014 -4.77083e-015
lhumerus -34.6383 -18.1374 97.3788
lradius 66.4584
lwrist 22.8795
lhand -15.1271 16.1528
lfingers 7.12502
lthumb 11.0422 45.8424
rfemur -5.32204 -10.7986 17.7909
rtibia 20.5332
rfoot -17.8835 -29.4915
rtoes -3.636
lfemur -25.7763 -3.74949 -17.9531
ltibia 18.2778
lfoot -5.40906 -14.1126
ltoes 5.34903
2081
root 6.50067 17.8717 -2.53105 14.5576 -28.564 -1.53608
lowerback 6.09238 4.6728 0.123005
upperback -1.81078 6.38619 2.64866
thorax -5.58467 3.19895 1.98108
lowerneck -16.2049 -3.87728 -10.2667
upperneck 10.5611 -3.66204 5.22559
head 6.13602 -1.78678 2.96325
rclavicle 5.36719e-015 -4.77083e-015
rhumerus -24.9507 -24.2462 -74.2538
rradius 15.0205
rwrist 1.12464
rhand -23.7079 -1.71551
rfingers 7.12502
rthumb 2.75945 -31.6774
lclavicle 5.36719e-015 -4.77083e-015
lhumerus -34.6034 -17.9991 97.188
lradius 66.4639
lwrist 22.677
lhand -15.0985 16.0383
lfingers 7.12502
lthumb 11.0697 45.7264
rfemur -5.26802 -10.6752 17.7699
rtibia 20.3134
rfoot -17.8605 -29.4737
rtoes -3.55499
lfemur -25.7798 -3.70303 -17.9308
ltibia 18.3108
lfoot -5.41686 -13.9158
ltoes 5.25377
2082
root 6.50397 17.8701 -2.54222 14.5422 -28.8296 -1.54347
lowerback 6.06846 4.6485 0.0943626
upperback -1.80554 6.35071 2.64693
thorax -5.56705 3.18248 2.00134
lowerneck -16.2832 -3.74454 -10.1521
upperneck 10.6327 -3.48461 5.10689
head 6.15339 -1.70565 2.92466
rclavicle 1.35174e-014 4.6118e-014
rhumerus -25.842 -24.8683 -73.3845
rradius 14.8703
rwrist 1.80556
rhand -23.6071 -1.59592
rfingers 7.12502
rthumb 2.85677 -31.5565
lclavicle 1.35174e-014 4.6118e-014
lhumerus -34.5758 -17.862 97.0046
lradius 66.4606
lwrist 22.4092
lhand -15.0767 15.8968
lfingers 7.12502
lthumb 11.0907 45.5837
rfemur -5.20984 -10.5434 17.7457
rtibia 20.0907
rfoot -17.84 -29.4568
rtoes -3.47027
lfemur -25.7823 -3.65828 -17.9095
ltibia 18.3496
lfoot -5.42713 -13.7091
ltoes 5.13894
2083
root 6.50742 17.8683 -2.55362 14.5256 -29.0986 -1.54766
lowerback 6.04159 4.62606 0.0706105
upperback -1.79838 6.31774 2.64035
thorax -5.54469 3.16698 2.01392
lowerneck -16.3621 -3.61148 -10.0331
upperneck 10.7075 -3.30785 4.9885
head 6.17229 -1.62474 2.88544
rclavicle -2.54444e-014 3.97569e-015
rhumerus -26.7071 -25.4562 -72.5246
rradius 14.733
rwrist 2.44725
rhand -23.5129 -1.49882
rfingers 7.12502
rthumb 2.94782 -31.4582
lclavicle -2.54444e-014 3.97569e-015
lhumerus -34.5462 -17.7271 96.8183
lradius 66.4553
lwrist 22.102
lhand -15.0461 15.7795
lfingers 7.12502
lthumb 11.1203 45.4648
rfemur -5.15182 -10.4084 17.718
rtibia 19.8658
rfoot -17.8272 -29.4386
rtoes -3.36167
lfemur -25.7862 -3.63176 -17.8866
ltibia 18.3909
lfoot -5.43852 -13.479
ltoes 4.99771
2084
root 6.51107 17.8662 -2.56514 14.5054 -29.3712 -1.54723
lowerback 6.02483 4.612 0.0438285
upperback -1.79229 6.29573 2.62904
thorax -5.52942 3.15687 2.02113
lowerneck -16.4576 -3.48371 -9.90369
upperneck 10.7968 -3.13885 4.86757
head 6.19941 -1.54746 2.84284
rclavicle -4.33351e-014 -7.95139e-016
rhumerus -27.5515 -25.9913 -71.6828
rradius 14.6247
rwrist 3.02176
rhand -23.4474 -1.4696
rfingers 7.12502
rthumb 3.01107 -31.4281
lclavicle -4.33351e-014 -7.95139e-016
lhumerus -34.5191 -17.6062 96.6381
lradius 66.4536
lwrist 21.7861
lhand -14.9969 15.7107
lfingers 7.12502
lthumb 11.1677 45.3935
rfemur -5.09162 -10.2744 17.6844
rtibia 19.6384
rfoot -17.8201 -29.4157
rtoes -3.23315
lfemur -25.7885 -3.6156 -17.8662
ltibia 18.4325
lfoot -5.44981 -13.2351
ltoes 4.83049
2085
root 6.5148 17.8641 -2.57707 14.4838 -29.6464 -1.53999
lowerback 6.01247 4.5982 0.0111238
upperback -1.79318 6.27393 2.61733
thorax -5.5246 3.14706 2.03046
lowerneck -16.5318 -3.35286 -9.7789
upperneck 10.8857 -2.967 4.74708
head 6.22323 -1.4693 2.80164
rclavicle 2.96189e-014 2.22639e-014
rhumerus -28.3782 -26.4294 -70.8716
rradius 14.5499
rwrist 3.49321
rhand -23.3974 -1.49157
rfingers 7.12502
rthumb 3.05935 -31.4494
lclavicle 2.96189e-014 2.22639e-014
lhumerus -34.5073 -17.4762 96.4656
lradius 66.4544
lwrist 21.4728
lhand -14.928 15.7005
lfingers 7.12502
lthumb 11.2341 45.3797
rfemur -5.03287 -10.1401 17.6452
rtibia 19.408
rfoot -17.8333 -29.3883
rtoes -3.05132
lfemur -25.7921 -3.6118 -17.8481
ltibia 18.4718
lfoot -5.45649 -12.9776
ltoes 4.6498
2086
root 6.51855 17.862 -2.58943 14.4607 -29.9202 -1.52687
lowerback 5.99936 4.58292 -0.0234549
upperback -1.79456 6.24989 2.60294
thorax -5.51962 3.13617 2.03834
lowerneck -16.5951 -3.22067 -9.65814
upperneck 10.9717 -2.79469 4.63436
head 6.24489 -1.39061 2.76376
rclavicle 8.34896e-014 2.46493e-014
rhumerus -29.1724 -26.8289 -70.0853
rradius 14.4881
rwrist 3.90751
rhand -23.3627 -1.50039
rfingers 7.12502
rthumb 3.09282 -31.4577
lclavicle 8.34896e-014 2.46493e-014
lhumerus -34.4964 -17.3444 96.2931
lradius 66.4562
lwrist 21.1932
lhand -14.8559 15.7181
lfingers 7.12502
lthumb 11.3037 45.3935
rfemur -4.975 -10.0082 17.6034
rtibia 19.1745
rfoot -17.8602 -29.3628
rtoes -2.83142
lfemur -25.798 -3.61644 -17.8316
ltibia 18.5091
lfoot -5.45442 -12.7156
ltoes 4.48816
2087
root 6.5222 17.86 -2.60247 14.4359 -30.1939 -1.50869
lowerback 5.99005 4.56452 -0.0660344
upperback -1.79817 6.22134 2.59142
thorax -5.52016 3.12337 2.05368
lowerneck -16.6485 -3.08363 -9.55017
upperneck 11.0574 -2.61496 4.52889
head 6.26499 -1.30847 2.73116
rclavicle -3.43897e-014 2.38542e-015
rhumerus -29.9316 -27.1654 -69.3287
rradius 14.4471
rwrist 4.25012
rhand -23.3135 -1.4914
rfingers 7.12502
rthumb 3.14036 -31.448
lclavicle -3.43897e-014 2.38542e-015
lhumerus -34.4896 -17.2042 96.1265
lradius 66.4568
lwrist 20.9619
lhand -14.7827 15.7488
lfingers 7.12502
lthumb 11.3743 45.4203
rfemur -4.92069 -9.87771 17.5616
rtibia 18.9395
rfoot -17.8908 -29.3456
rtoes -2.6041
lfemur -25.8061 -3.62105 -17.8168
ltibia 18.5446
lfoot -5.44552 -12.4581
ltoes 4.35039
2088
root 6.52576 17.858 -2.61632 14.4112 -30.4619 -1.48785
lowerback 5.98132 4.5421 -0.107186
upperback -1.79921 6.18737 2.57823
thorax -5.51769 3.1078 2.0672
lowerneck -16.7086 -2.9435 -9.44574
upperneck 11.1461 -2.43065 4.43052
head 6.2874 -1.22373 2.70193
rclavicle 1.37161e-014 -3.18055e-015
rhumerus -30.6467 -27.5041 -68.5894
rradius 14.4097
rwrist 4.57958
rhand -23.2415 -1.46076
rfingers 7.12502
rthumb 3.20985 -31.4163
lclavicle 1.37161e-014 -3.18055e-015
lhumerus -34.4762 -17.0702 95.9582
lradius 66.4551
lwrist 20.794
lhand -14.7182 15.7876
lfingers 7.12502
lthumb 11.4366 45.4557
rfemur -4.87123 -9.75125 17.5242
rtibia 18.7053
rfoot -17.9291 -29.3393
rtoes -2.37112
lfemur -25.8202 -3.61954 -17.8029
ltibia 18.5815
lfoot -5.43145 -12.2141
ltoes 4.24766
